<?xml version="1.0" encoding="UTF-8" standalone="no"?>
<svg
   xmlns:dc="http://purl.org/dc/elements/1.1/"
   xmlns:cc="http://creativecommons.org/ns#"
   xmlns:rdf="http://www.w3.org/1999/02/22-rdf-syntax-ns#"
   xmlns:svg="http://www.w3.org/2000/svg"
   xmlns="http://www.w3.org/2000/svg"
   xmlns:sodipodi="http://sodipodi.sourceforge.net/DTD/sodipodi-0.dtd"
   xmlns:inkscape="http://www.inkscape.org/namespaces/inkscape"
   version="1.1"
   x="0px"
   y="0px"
   viewBox="0 0 100 80"
   enable-background="new 0 0 100 100"
   xml:space="preserve"
   id="svg2"
   inkscape:version="0.91 r13725"
   sodipodi:docname="draganddrop.svg"
   width="100"
   height="80"><metadata
     id="metadata60"><rdf:RDF><cc:Work
         rdf:about=""><dc:format>image/svg+xml</dc:format><dc:type
           rdf:resource="http://purl.org/dc/dcmitype/StillImage" /><dc:title></dc:title></cc:Work></rdf:RDF></metadata><defs
     id="defs58" /><sodipodi:namedview
     pagecolor="#ffffff"
     bordercolor="#666666"
     borderopacity="1"
     objecttolerance="10"
     gridtolerance="10"
     guidetolerance="10"
     inkscape:pageopacity="0"
     inkscape:pageshadow="2"
     inkscape:window-width="1920"
     inkscape:window-height="1017"
     id="namedview56"
     showgrid="false"
     inkscape:zoom="3.776"
     inkscape:cx="-12.807461"
     inkscape:cy="30.663014"
     inkscape:window-x="-8"
     inkscape:window-y="-8"
     inkscape:window-maximized="1"
     inkscape:current-layer="svg2" /><g
     id="g4"
     transform="translate(0.79449153,-8.7182203)"><g
       id="g6"><path
         d="m 78.904,63.18 -7.894,-7.894 5.858,-2.844 c 0.401,-0.192 0.642,-0.609 0.615,-1.054 -0.022,-0.445 -0.318,-0.829 -0.736,-0.972 l -9.558,-3.288 0,-19.226 2.377,0 c 0.609,0 1.098,-0.489 1.098,-1.098 0,-0.604 -0.489,-1.098 -1.098,-1.098 l -2.377,0 0,-10.387 c 0,-0.609 -0.494,-1.098 -1.098,-1.098 l -45.957,0 c -0.609,0 -1.098,0.489 -1.098,1.098 l 0,10.387 -2.542,0 c -0.604,0 -1.098,0.494 -1.098,1.098 0,0.609 0.494,1.098 1.098,1.098 l 2.542,0 0,25.89 c 0,0.604 0.489,1.098 1.098,1.098 l 37.019,0 3.87,11.249 c 0.148,0.417 0.533,0.708 0.972,0.736 0.445,0.033 0.862,-0.214 1.054,-0.615 l 2.849,-5.858 7.889,7.895 c 0.209,0.203 0.489,0.318 0.78,0.318 0.055,0 0.115,-0.005 0.17,-0.016 0.033,-0.006 0.066,-0.011 0.099,-0.022 0.038,-0.006 0.077,-0.016 0.115,-0.033 0.011,0 0.022,-0.005 0.033,-0.011 0.132,-0.055 0.253,-0.137 0.357,-0.236 l 3.563,-3.563 c 0.203,-0.203 0.324,-0.483 0.324,-0.774 -10e-4,-0.291 -0.121,-0.571 -0.324,-0.78 z m -57.672,-46.763 43.76,0 0,22.3 L 53.699,27.43 c -0.412,-0.412 -1.142,-0.412 -1.554,0 L 36.867,42.703 31.756,37.597 c -0.412,-0.412 -1.142,-0.412 -1.554,0 l -8.971,8.965 0,-30.145 z m 0,36.277 0,-3.024 9.75,-9.745 5.111,5.111 c 0.412,0.412 1.136,0.412 1.548,0 l 15.279,-15.278 12.072,12.067 0,4.546 -9.997,-3.442 c -0.428,-0.148 -0.884,-0.011 -1.164,0.307 -0.005,0 -0.005,0 -0.011,0.005 -0.302,0.285 -0.423,0.73 -0.28,1.147 l 2.855,8.306 -35.163,0 z m 53.335,13.27 -8.207,-8.207 c -0.253,-0.253 -0.609,-0.362 -0.961,-0.307 -0.351,0.06 -0.648,0.285 -0.807,0.604 l -2.355,4.859 -3.25,-9.443 c -0.011,-0.038 -0.022,-0.071 -0.038,-0.104 l -2.63,-7.653 17.2,5.918 -4.853,2.355 c -0.324,0.154 -0.549,0.456 -0.604,0.807 -0.06,0.351 0.055,0.708 0.302,0.961 l 8.213,8.207 -2.01,2.003 z"
         id="path8"
         inkscape:connector-curvature="0" /><path
         d="m 75.341,68.297 c -0.104,0.104 -0.225,0.187 -0.357,0.236 0.132,-0.055 0.252,-0.137 0.357,-0.236 z"
         id="path10"
         inkscape:connector-curvature="0" /></g></g><g
     id="g12"
     transform="translate(0.79449153,-8.7182203)"><g
       id="g14"><path
         d="m 83.595,27.904 -7.013,0 c -0.606,0 -1.098,-0.492 -1.098,-1.098 0,-0.606 0.492,-1.098 1.098,-1.098 l 7.013,0 c 0.606,0 1.098,0.492 1.098,1.098 0,0.606 -0.492,1.098 -1.098,1.098 z"
         id="path16"
         inkscape:connector-curvature="0" /></g><g
       id="g18"><path
         d="m 93.902,31.198 c -0.606,0 -1.098,-0.492 -1.098,-1.098 l 0,-2.196 -2.196,0 c -0.606,0 -1.098,-0.492 -1.098,-1.098 0,-0.606 0.492,-1.098 1.098,-1.098 l 3.294,0 c 0.606,0 1.098,0.492 1.098,1.098 l 0,3.294 c 0,0.607 -0.492,1.098 -1.098,1.098 z"
         id="path20"
         inkscape:connector-curvature="0" /></g><g
       id="g22"><path
         d="m 93.902,75.158 c -0.606,0 -1.098,-0.492 -1.098,-1.098 l 0,-7.326 c 0,-0.606 0.492,-1.098 1.098,-1.098 0.606,0 1.098,0.491 1.098,1.098 l 0,7.326 c 0,0.607 -0.492,1.098 -1.098,1.098 z m 0,-14.653 c -0.606,0 -1.098,-0.492 -1.098,-1.098 l 0,-7.327 c 0,-0.606 0.492,-1.098 1.098,-1.098 0.606,0 1.098,0.492 1.098,1.098 l 0,7.327 c 0,0.606 -0.492,1.098 -1.098,1.098 z m 0,-14.653 c -0.606,0 -1.098,-0.492 -1.098,-1.098 l 0,-7.327 c 0,-0.606 0.492,-1.098 1.098,-1.098 0.606,0 1.098,0.492 1.098,1.098 l 0,7.327 c 0,0.606 -0.492,1.098 -1.098,1.098 z"
         id="path24"
         inkscape:connector-curvature="0" /></g><g
       id="g26"><path
         d="m 93.902,85.779 -3.294,0 c -0.606,0 -1.098,-0.492 -1.098,-1.098 0,-0.606 0.492,-1.098 1.098,-1.098 l 2.196,0 0,-2.196 c 0,-0.606 0.492,-1.098 1.098,-1.098 0.606,0 1.098,0.492 1.098,1.098 l 0,3.294 c 0,0.606 -0.492,1.098 -1.098,1.098 z"
         id="path28"
         inkscape:connector-curvature="0" /></g><g
       id="g30"><path
         d="m 84.361,85.779 -6.247,0 c -0.606,0 -1.098,-0.492 -1.098,-1.098 0,-0.606 0.492,-1.098 1.098,-1.098 l 6.247,0 c 0.606,0 1.098,0.492 1.098,1.098 0,0.606 -0.492,1.098 -1.098,1.098 z m -12.495,0 -6.247,0 c -0.606,0 -1.098,-0.492 -1.098,-1.098 0,-0.606 0.492,-1.098 1.098,-1.098 l 6.247,0 c 0.606,0 1.098,0.492 1.098,1.098 0,0.606 -0.492,1.098 -1.098,1.098 z m -12.495,0 -6.247,0 c -0.606,0 -1.098,-0.492 -1.098,-1.098 0,-0.606 0.492,-1.098 1.098,-1.098 l 6.247,0 c 0.606,0 1.098,0.492 1.098,1.098 0,0.606 -0.492,1.098 -1.098,1.098 z m -12.495,0 -6.247,0 c -0.606,0 -1.098,-0.492 -1.098,-1.098 0,-0.606 0.492,-1.098 1.098,-1.098 l 6.247,0 c 0.606,0 1.098,0.492 1.098,1.098 0,0.606 -0.491,1.098 -1.098,1.098 z m -12.494,0 -6.247,0 c -0.606,0 -1.098,-0.492 -1.098,-1.098 0,-0.606 0.492,-1.098 1.098,-1.098 l 6.247,0 c 0.606,0 1.098,0.492 1.098,1.098 0,0.606 -0.492,1.098 -1.098,1.098 z m -12.495,0 -6.247,0 c -0.606,0 -1.098,-0.492 -1.098,-1.098 0,-0.606 0.492,-1.098 1.098,-1.098 l 6.247,0 c 0.606,0 1.098,0.492 1.098,1.098 0,0.606 -0.492,1.098 -1.098,1.098 z"
         id="path32"
         inkscape:connector-curvature="0" /></g><g
       id="g34"><path
         d="m 9.392,85.779 -3.294,0 C 5.492,85.779 5,85.287 5,84.681 l 0,-3.294 c 0,-0.606 0.492,-1.098 1.098,-1.098 0.606,0 1.098,0.492 1.098,1.098 l 0,2.196 2.196,0 c 0.606,0 1.098,0.492 1.098,1.098 0,0.606 -0.492,1.098 -1.098,1.098 z"
         id="path36"
         inkscape:connector-curvature="0" /></g><g
       id="g38"><path
         d="M 6.098,75.158 C 5.492,75.158 5,74.667 5,74.06 l 0,-7.327 c 0,-0.606 0.492,-1.098 1.098,-1.098 0.606,0 1.098,0.492 1.098,1.098 l 0,7.327 c 0,0.607 -0.492,1.098 -1.098,1.098 z m 0,-14.653 C 5.492,60.505 5,60.013 5,59.407 L 5,52.08 c 0,-0.606 0.492,-1.098 1.098,-1.098 0.606,0 1.098,0.492 1.098,1.098 l 0,7.327 c 0,0.606 -0.492,1.098 -1.098,1.098 z m 0,-14.654 C 5.492,45.851 5,45.36 5,44.753 l 0,-7.326 c 0,-0.606 0.492,-1.098 1.098,-1.098 0.606,0 1.098,0.492 1.098,1.098 l 0,7.326 c 0,0.607 -0.492,1.098 -1.098,1.098 z"
         id="path40"
         inkscape:connector-curvature="0" /></g><g
       id="g42"><path
         d="M 6.098,31.198 C 5.492,31.198 5,30.707 5,30.1 L 5,26.806 C 5,26.2 5.492,25.708 6.098,25.708 l 3.294,0 c 0.606,0 1.098,0.492 1.098,1.098 0,0.606 -0.492,1.098 -1.098,1.098 l -2.196,0 0,2.196 c 0,0.607 -0.492,1.098 -1.098,1.098 z"
         id="path44"
         inkscape:connector-curvature="0" /></g></g><g
     id="g46"
     transform="translate(0.79449153,-8.7182203)"><g
       id="g48"><path
         d="m 33.603,32.895 c -2.999,0 -5.438,-2.44 -5.438,-5.438 0,-2.999 2.44,-5.438 5.438,-5.438 2.998,0 5.438,2.44 5.438,5.438 0,2.998 -2.439,5.438 -5.438,5.438 z m 0,-8.681 c -1.788,0 -3.242,1.455 -3.242,3.242 0,1.788 1.455,3.242 3.242,3.242 1.788,0 3.242,-1.455 3.242,-3.242 0,-1.787 -1.454,-3.242 -3.242,-3.242 z"
         id="path50"
         inkscape:connector-curvature="0" /></g></g><text
     x="8.5879354"
     y="74.108246"
     font-size="5px"
     font-weight="bold"
     id="text52"
     style="font-weight:bold;font-size:1.20874333px;font-family:'Helvetica Neue', Helvetica, Arial-Unicode, Arial, Sans-serif;fill:#000000">Created by Garrett Knoll</text>
<text
     x="23.052042"
     y="74.117859"
     font-size="5px"
     font-weight="bold"
     id="text54"
     style="font-weight:bold;font-size:1.16933501px;font-family:'Helvetica Neue', Helvetica, Arial-Unicode, Arial, Sans-serif;fill:#000000">from the Noun Project</text>
</svg>